<svg width="162" height="162" viewBox="0 0 162 162" fill="none" xmlns="http://www.w3.org/2000/svg">
<circle cx="81.0084" cy="81.0311" r="42.9215" fill="#A4E8C2"/>
<path d="M81.0082 2.89905L95.1873 19.805L95.892 20.6452L96.9063 20.2287L117.318 11.8486L122.016 33.4075L122.25 34.4789L123.342 34.5815L145.31 36.647L139.451 57.9199L139.16 58.9771L140.079 59.5753L158.57 71.6133L143.497 87.7268L142.748 88.5276L143.283 89.4843L154.063 108.737L133.227 116L132.192 116.361L132.222 117.457L132.819 139.514L110.995 136.262L109.911 136.1L109.428 137.085L99.7064 156.893L81.8934 143.871L81.0082 143.224L80.123 143.871L62.31 156.893L52.5887 137.085L52.1056 136.1L51.0211 136.262L29.1971 139.514L29.7946 117.457L29.8243 116.361L28.7889 116L7.95353 108.737L18.7329 89.4843L19.2686 88.5276L18.5195 87.7268L3.4459 71.6133L21.9377 59.5753L22.8567 58.9771L22.5655 57.9199L16.7068 36.647L38.6749 34.5815L39.7666 34.4789L40.0001 33.4075L44.6985 11.8486L65.1101 20.2287L66.1244 20.6452L66.8291 19.805L81.0082 2.89905Z" stroke="#A4E8C2" stroke-width="3"/>
<path d="M57.3838 79.3935L74.2253 96.2349L104.633 65.8269" stroke="#1E9850" stroke-width="6"/>
</svg>
