<svg width="19" height="18" viewBox="0 0 19 18" fill="none" xmlns="http://www.w3.org/2000/svg">
<path d="M7.21094 0.24707C8.93484 0.24707 10.5881 0.93189 11.8071 2.15088C13.0261 3.36986 13.7109 5.02316 13.7109 6.74707C13.7109 8.35707 13.1209 9.83707 12.1509 10.9771L12.4209 11.2471H13.2109L18.2109 16.2471L16.7109 17.7471L11.7109 12.7471V11.9571L11.4409 11.6871C10.3009 12.6571 8.82094 13.2471 7.21094 13.2471C5.48703 13.2471 3.83373 12.5623 2.61474 11.3433C1.39576 10.1243 0.710938 8.47098 0.710938 6.74707C0.710938 5.02316 1.39576 3.36986 2.61474 2.15088C3.83373 0.93189 5.48703 0.24707 7.21094 0.24707ZM7.21094 2.24707C4.71094 2.24707 2.71094 4.24707 2.71094 6.74707C2.71094 9.24707 4.71094 11.2471 7.21094 11.2471C9.71094 11.2471 11.7109 9.24707 11.7109 6.74707C11.7109 4.24707 9.71094 2.24707 7.21094 2.24707Z" fill="white"/>
</svg>
